<?xml version="1.0" encoding="UTF-8"?><svg xmlns="http://www.w3.org/2000/svg" viewBox="0 0 144.25 129.16"><g id="a"/><g id="b"><g id="c"><path d="M42.92,0c-.02,.67-.02,1.34-.05,2.01-.06,1.2-.13,2.4-.2,3.59l1.81-.76,.05,.11-2.52,1.38c2.52,.16,2.86,2.82,4.67,3.78-2.39,1.17-4.51,.27-6.55-2.74l-3.34,2.15,4.56,3.68c-2.09,1.49-4.56,.82-6.95-1.95l-2.87,2.35,4.97,3.15c-1.82,1.75-4.53,1.47-7.23-.73l-2.68,2.41,5.29,2.74c-1.64,1.99-4.68,2.04-7.61-.02l-2.18,2.67,5.73,2.09c-1.52,2.27-4.23,2.71-8.05,1.12l-1.83,2.83,6.29,1.3c-.98,2.51-3.96,3.44-8.29,2.37l-1.51,3.2c1.2,.09,2.35,.15,3.5,.26,1.16,.12,2.32,.28,3.44,.42-.95,2.83-4.44,4.26-8.43,3.16l-1.09,3.45,7.39-.41c-.74,3.29-4.05,5.22-8.4,4.68-.18,.97-.37,1.94-.54,2.91-.04,.27,0,.55,0,.64,1.25-.28,2.5-.57,3.75-.83,1.26-.27,2.53-.51,3.77-.75,.2,3.1-3.24,5.91-8,6.13v3.7c1.14-.48,2.39-1.03,3.66-1.52,1.27-.48,2.57-.89,3.84-1.32,.74,3.15-2.53,6.7-7.45,7.63l.53,4.59c1.25-2.18,3.22-2.55,5.01-3.28,.96-.39,1.83-1.01,2.71-1.5,1,3.59-1.95,7.53-6.89,8.83l1.07,3.97c1.09-2.22,3.28-2.96,5.1-4.16,.77-.51,1.54-1.01,2.19-1.43,1.73,2.65-.73,7.8-5.65,10.16l1.85,4.16c.48-2.06,1.94-3.25,3.43-4.44,1.15-.92,2.4-1.77,2.69-3.39,2.86,2.69,.94,8.88-3.8,11.99l2.64,4.03c.12-2.43,1.68-3.92,3.09-5.54,.93-1.07,1.63-2.34,2.4-3.47,2.94,3.12,1.99,8.84-2.49,12.8,.54,.6,1.07,1.23,1.63,1.82,.57,.6,1.18,1.18,1.97,1.96-.69-2.75,.78-4.62,1.91-6.64,.69-1.24,1.12-2.63,1.64-3.9,2.84,1.92,4.69,8.59-.13,13.78l4.36,3.35c-1-2.6-.02-4.8,.97-7.01,.68-1.52,1.47-3.04,.85-4.84,3.53,1.64,6.58,8.3,2.34,14.45,1.69,.85,3.36,1.69,5.02,2.53-1.38-2.26-1.07-4.52-.54-6.81,.43-1.85,1.05-3.7,.06-5.62,5.11,1.27,7.63,8.05,5.29,14.28l5.41,1.58c-1.87-2.08-1.85-4.51-1.78-6.98,.06-1.91,.23-3.86-1.15-5.48,4.98-.52,9.29,6.36,8.39,13.56,2.89,.32,5.8,.51,8.65,1.01,5.29,.92,10.35-.8,15.67-.92-.91-4.33,.03-8,3.02-11.06,1.56-1.6,3.64-2.61,5.32-2.62-1.24,1.53-1.15,3.3-1.09,5.05,.09,2.61,.15,5.21-1.81,7.44l5.35-1.53c-2.02-6.9,.16-12.81,5.33-14.36-1,2.14-.31,4.18,.17,6.21,.51,2.15,.55,4.19-.68,6.28l5.06-2.5c-2.11-3.05-2.68-6.29-1.54-9.72,.66-1.98,1.84-3.6,3.83-4.85-.48,2.1,.32,3.79,1.11,5.47,.98,2.08,1.56,4.19,.68,6.54l4.45-3.39c-2.41-2.47-3.33-5.4-2.86-8.69,.29-2.06,1.21-3.85,3-5.41-.19,2.18,.96,3.68,1.95,5.24,1.01,1.58,1.78,3.23,1.35,5.21l.28,.15c1.08-1.15,2.17-2.31,3.25-3.46-4.56-4.64-5.38-9.44-2.2-13.22,.14,1.96,1.43,3.11,2.6,4.35,1.31,1.39,2.46,2.85,2.61,5,.89-1.33,1.78-2.67,2.67-4.01-4.79-3.16-6.34-7.91-3.94-12.14,.45,1.75,1.76,2.71,3.03,3.7,1.4,1.09,2.7,2.24,3.25,4.15,.6-1.31,1.2-2.63,1.84-4.05-2.92-1.18-4.9-3.17-5.71-6.2-.41-1.55-.28-3.22,.22-4.27,1.1,.84,2.2,1.78,3.4,2.55,1.42,.91,2.87,1.76,3.57,3.83,.46-1.69,.83-3.03,1.23-4.46-2.72-.57-4.82-1.89-6.13-4.28-.8-1.46-1.16-3.02-.91-4.45,1.42,.64,2.85,1.24,4.23,1.94,1.24,.64,2.42,1.39,3.68,2.13,.14-1.12,.32-2.54,.5-3.96-3.99-.35-7.95-3.55-7.43-7.66,2.48,.92,5,1.86,7.5,2.79v-3.62c-2.7,.1-4.99-.71-6.69-2.82-.81-1.01-1.38-2.13-1.41-3.34,2.58,.55,5.14,1.09,7.65,1.62-.17-.97-.39-2.25-.61-3.6-2.34,.45-4.4,.05-6.2-1.34-1.12-.87-1.92-1.97-2.25-3.29l7.42,.39c-.29-.96-.65-2.12-1.04-3.4-2.36,.66-4.64,.64-6.61-.9-.8-.62-1.41-1.51-2.14-2.31l7.18-.75-1.49-3.22c-1.94,.76-3.89,1.02-5.72,.07-1.05-.55-1.91-1.44-2.98-2.27l6.69-1.41-1.81-2.85c-3.62,1.66-6.41,1.24-8.06-1.06l5.72-2.11-2.09-2.59c-3.61,1.9-5.97,1.85-7.7-.04l5.3-2.77-2.5-2.62c-1.27,1.32-2.75,2.19-4.56,2.01-1.02-.1-2.01-.53-3.11-.84,1.04-.7,1.83-1.26,2.65-1.78,.82-.52,1.67-1.01,2.61-1.58l-2.91-2.39c-2.18,2.71-4.48,3.38-6.88,2.11,.7-.66,1.37-1.38,2.12-1.99,.75-.61,1.58-1.12,2.48-1.75l-3.47-2.26c-1.76,2.96-4.03,3.94-6.36,2.87,.65-.76,1.24-1.61,1.98-2.29,.7-.64,1.56-1.11,2.36-1.66l-1.67-1,1.08,.25c0-1.32,.02-2.6-.01-3.88-.01-.54-.15-1.08-.23-1.62h.48c1.54,1.09,2.8,2.39,2.9,4.4,.04,.82-.13,1.64-.21,2.63l3.28,1.94c-.06-.94-.23-1.89-.17-2.83,.06-.98,.35-1.95,.53-2.92,2.46,.81,3.54,4.33,2.11,7.36l3.37,2.55c-.85-2.29,.82-4.15,.99-6.23,2.53,1.16,3.19,5.08,1.43,7.84l2.71,3.13c.2-1.13,.3-2.25,.62-3.31,.32-1.06,.87-2.04,1.31-3.04,2.48,1.66,2.7,5.68,.32,8.68l2.67,3.25c-.27-2.71,2.05-4.26,2.76-6.48,2.44,1.99,2.07,6.57-.83,9.13,.79,1.27,1.6,2.57,2.41,3.86-.12-3.06,2.66-4.37,3.82-6.61,2.17,2.58,1.16,6.92-2.28,9.43l1.97,4.33c.16-3.41,3.12-4.5,4.51-6.73,2.09,2.75,.46,7.57-3.38,9.65,.44,1.49,.89,3,1.46,4.91,.45-3.79,3.94-4.39,5.74-6.61,1.56,3.62-.81,8.18-5.04,9.52l.69,4.45c1-.94,1.97-2.07,3.15-2.9,1.22-.86,2.65-1.42,3.98-2.11,1.15,2.59-1.7,8.57-6.65,8.84v4.95c1.74-3.41,5.63-2.84,8.18-4.57,1.06,3.64-3.37,8.16-8.34,8.34l-.68,5.32c1.09-1.77,2.46-2.65,4.16-3.03,1.62-.36,3.24-.73,4.85-1.1,.47,4.01-4.68,8.19-9.68,7.57-.49,1.73-.99,3.47-1.6,5.61,2.06-2.5,4.59-2.55,7.16-2.5,1.05,.02,2.1-.13,3.14-.19-.35,4.23-6.21,7.35-11.5,5.94-.71,1.55-1.42,3.12-2.13,4.68,2.71-1.81,5.53-1.12,8.35-.65,.8,.13,1.64,.02,2.45,.02-1.51,4.6-7.81,6.81-12.89,4.44-1.01,1.51-2.03,3.02-3.05,4.55,1.01-.27,2.01-.79,3-.74,1.57,.07,3.12,.5,4.68,.81,1.2,.24,2.39,.54,3.58,.81-1.14,4.23-9.07,5.83-13.93,2.57l-3.99,4.22c1.89-.51,3.74-.52,5.52,.3,1.12,.51,2.19,1.16,3.31,1.68,.89,.41,1.83,.71,2.74,1.06-1.9,4.12-10.58,4.24-14.8-.03-1.48,1.15-2.98,2.31-4.47,3.47,3.2-.52,5.51,1.17,7.84,2.9,1.06,.79,2.25,1.41,3.35,2.08-3.63,3.75-11.42,2.72-15.34-2.27l-4.97,2.63c3.41,.25,5.38,2.59,7.44,4.85,.84,.92,1.86,1.68,2.77,2.5-3.87,3.3-12.18,.58-15.2-5.24l-5.58,1.74c.33,.15,.54,.27,.76,.35,2.07,.73,3.45,2.25,4.58,4.04,.66,1.05,1.23,2.15,1.93,3.17,.49,.71,1.14,1.3,1.71,1.93-4.46,2.64-12.01-1.53-14.62-8.29l-7.57,.9c1.83,1.54,3.69,3.01,5.44,4.62,1.12,1.03,1.23,2.07,.56,2.7-.69,.65-1.83,.44-2.84-.65-2.06-2.24-4.37-4.1-7.25-5.15-.5-.18-1.18-.18-1.69,0-2.6,.94-4.77,2.54-6.66,4.55-.46,.49-.95,1.09-1.54,1.28-.58,.19-1.46,.16-1.93-.17-.67-.48-.46-1.37,.06-1.92,1.16-1.2,2.37-2.36,3.65-3.44,.74-.63,1.65-1.07,2.75-1.77l-8.04-.97c-.98,3.92-3.51,6.47-7.14,7.97-2.46,1.01-4.99,1.31-7.41,.5,.83-1.12,1.76-2.2,2.48-3.4,1.58-2.61,3.09-5.25,6.69-6.18l-5.72-1.8c-3.63,5.96-10.78,8.33-15.28,5.26,.97-.89,1.98-1.79,2.97-2.71,1.16-1.09,2.2-2.35,3.5-3.24,1.04-.72,2.38-.99,3.63-1.48l-4.8-2.58c-4.5,5.04-11.62,6-15.42,2.26,1.03-.62,2.11-1.25,3.17-1.91,1.32-.82,2.54-1.86,3.95-2.45,1.23-.51,2.67-.53,3.93-.75l-4.29-3.36c-2.39,2.76-5.51,3.52-8.97,3.1-2.35-.28-4.42-1.24-5.93-2.93,1.46-.68,2.93-1.3,4.34-2.04,2.29-1.2,4.6-2.06,7.3-1.11l-3.9-4.21c-5.55,3.05-12.06,1.79-14.02-2.54,1.49-.39,3.01-.76,4.51-1.2,2.24-.65,4.45-.97,6.73,.25l-3.01-4.57c-2.73,1.56-5.53,1.45-8.33,.19-2.24-1.01-3.79-2.58-4.57-4.47,1.5-.17,3.04-.34,4.57-.53,2.22-.27,4.37-.28,6.32,1.22l-2.23-4.91c-2.91,1.07-5.6,.56-8.08-1.13-1.75-1.2-3.04-2.76-3.53-4.76,1.17,.07,2.31,.21,3.44,.18,2.48-.05,4.88,.04,6.82,2.01l-1.42-5.1c-2.97,.51-5.42-.53-7.46-2.6-1.41-1.43-2.25-3.16-2.41-5.09,1.29,.32,2.53,.7,3.8,.93,2.06,.38,3.94,1,5.29,2.83l-.57-4.88c-2.95,.16-5.22-1.12-6.95-3.44-1.17-1.57-1.68-3.28-1.49-4.76,1.05,.38,2.11,.83,3.2,1.15,2.09,.59,3.98,1.4,5.05,3.52v-5.07c-4.64-1.02-7.91-5.51-6.65-9.04,.74,.43,1.46,.93,2.24,1.29,2.01,.93,4.01,1.85,4.85,4.18l.76-4.75c-4.37-1.75-6.46-5.66-5.16-9.46,1.16,.84,2.34,1.7,3.52,2.55,1.19,.87,2.03,1.98,2.33,3.85l1.51-4.85c-2.19-.9-3.46-2.59-4.05-4.83-.44-1.68-.33-3.32,.28-4.45,.99,.81,2.11,1.64,3.13,2.59,1.02,.94,1.7,2.1,1.79,3.61l1.93-4.16c-3.45-2.41-4.47-6.62-2.29-9.48,1.06,2.3,3.96,3.54,3.76,6.7l2.42-3.8c-2.9-3.26-3.22-6.84-.84-9.31,.7,2.32,3.22,3.91,2.42,7.04l2.99-3.66c-2.26-3.6-2.11-6.79,.46-8.84,.44,2.19,2.36,3.97,1.41,6.77l3.32-3.16c-1.91-3.13-1.4-6.57,1.12-8.12,.34,1,.78,2,1,3.04,.21,.98,.18,2.01,.26,3.05l3.26-2.42c-1.04-1.75-1.05-3.58-.05-5.31,.51-.88,1.31-1.58,2.13-2.26-.01,2.04,1.34,3.91,.31,5.97l3.48-2.02C39.06,3.84,39.82,1.91,42.68,0h.24Z"/></g></g></svg>